<svg xmlns="http://www.w3.org/2000/svg" width="33" height="33" viewBox="0 0 33 33">
  <defs>
    <style>
      .cls-1 {
        fill: #0fff2d;
        fill-rule: evenodd;
      }
    </style>
  </defs>
  <path id="icon_messaging" class="cls-1" d="M11.88,0.187a0.644,0.644,0,0,0-.911.912A0.644,0.644,0,1,0,11.88.187ZM33,12.02a0.642,0.642,0,0,0-.266-0.49L29.52,9.2V1.933A1.936,1.936,0,0,0,27.586,0H13.954a0.645,0.645,0,0,0,0,1.29H27.586a0.645,0.645,0,0,1,.645.645V14.588l-7.868,6.424-1.974-1.428a3.215,3.215,0,0,0-3.778,0l-1.974,1.428L4.769,14.588V1.933a0.646,0.646,0,0,1,.645-0.645H8.927a0.645,0.645,0,0,0,0-1.29H5.414A1.936,1.936,0,0,0,3.48,1.933V9.2L0.267,11.53h0A0.643,0.643,0,0,0,0,12.052V29.776A3.226,3.226,0,0,0,3.223,33H29.777A3.226,3.226,0,0,0,33,29.776V12.052C33,12.04,33,12.029,33,12.02ZM29.52,10.8L31.3,12.082,29.52,13.535V10.8ZM3.48,10.8v2.739L1.7,12.082ZM1.289,13.41l10.267,8.383L1.289,29.222V13.41Zm28.488,18.3H3.223A1.934,1.934,0,0,1,1.5,30.658l13.863-10.03a1.929,1.929,0,0,1,2.267,0l11.041,7.988H22.236a0.644,0.644,0,1,0,0,1.289h8.219L31.5,30.658A1.934,1.934,0,0,1,29.777,31.71Zm1.934-2.488-10.267-7.43L31.711,13.41V29.222ZM19.676,7.69a0.645,0.645,0,0,0-.912,0L15.6,10.853,14.235,9.485a0.645,0.645,0,0,0-.912.912l1.823,1.823a0.644,0.644,0,0,0,.911,0L19.676,8.6A0.644,0.644,0,0,0,19.676,7.69ZM16.5,3.479a6.476,6.476,0,1,0,6.476,6.476A6.483,6.483,0,0,0,16.5,3.479Zm0,11.664a5.187,5.187,0,1,1,5.187-5.188A5.193,5.193,0,0,1,16.5,15.143ZM19.77,28.8a0.644,0.644,0,1,0,.189.456A0.649,0.649,0,0,0,19.77,28.8Z"/>
</svg>
