<svg xmlns="http://www.w3.org/2000/svg" width="46" height="46" viewBox="0 0 46 46">
  <defs>
    <style>
      .cls-1 {
        fill: #0f7bff;
        fill-rule: evenodd;
      }
    </style>
  </defs>
  <path id="icon_sheet" class="cls-1" d="M37.2,13.364a0.9,0.9,0,0,0,.9-0.9V2.7A2.7,2.7,0,0,0,35.4,0H2.7A2.7,2.7,0,0,0,0,2.7V43.3A2.7,2.7,0,0,0,2.7,46H35.4a2.7,2.7,0,0,0,2.7-2.7V36.685a0.9,0.9,0,1,0-1.8,0V43.3a0.9,0.9,0,0,1-.9.9H2.7a0.9,0.9,0,0,1-.9-0.9V2.7a0.9,0.9,0,0,1,.9-0.9H35.4a0.9,0.9,0,0,1,.9.9v9.77A0.9,0.9,0,0,0,37.2,13.364ZM19.048,4.851a8.261,8.261,0,0,0-5.671,14.273,0.839,0.839,0,0,0,.1.09,8.25,8.25,0,0,0,11.149,0,0.855,0.855,0,0,0,.1-0.09A8.261,8.261,0,0,0,19.048,4.851Zm0,14.734a6.431,6.431,0,0,1-3.908-1.318,4.492,4.492,0,0,1,7.815,0A6.431,6.431,0,0,1,19.048,19.585ZM17.61,12.757V12.174a1.438,1.438,0,1,1,2.875,0v0.584A1.438,1.438,0,0,1,17.61,12.757Zm6.643,4.194a6.23,6.23,0,0,0-2.647-2.219,3.216,3.216,0,0,0,.676-1.975V12.174a3.235,3.235,0,1,0-6.469,0v0.584a3.217,3.217,0,0,0,.676,1.975,6.232,6.232,0,0,0-2.647,2.219A6.469,6.469,0,1,1,24.253,16.951ZM23.9,39.351H19.048a0.9,0.9,0,1,0,0,1.8H23.9A0.9,0.9,0,1,0,23.9,39.351Zm0-5.031H11.141a0.9,0.9,0,1,0,0,1.8H23.9A0.9,0.9,0,1,0,23.9,34.32Zm0-5.031H11.141a0.9,0.9,0,1,0,0,1.8H23.9A0.9,0.9,0,1,0,23.9,29.289ZM7.939,24.521a0.9,0.9,0,1,0,.263.635A0.905,0.905,0,0,0,7.939,24.521Zm0,5.031a0.9,0.9,0,1,0,.263.635A0.907,0.907,0,0,0,7.939,29.552Zm0,5.031a0.9,0.9,0,1,0,.263.635A0.907,0.907,0,0,0,7.939,34.583ZM23.9,24.257H11.141a0.9,0.9,0,0,0,0,1.8H23.9A0.9,0.9,0,1,0,23.9,24.257ZM44.115,11.708a3.773,3.773,0,0,0-5.155,1.381L27.653,32.672a0.891,0.891,0,0,0-.115.349l-0.8,7.128a0.9,0.9,0,0,0,1.426.823l5.776-4.253a0.9,0.9,0,0,0,.245-0.275L45.5,16.863A3.778,3.778,0,0,0,44.115,11.708Zm-15.359,26.6,0.416-3.723,2.6,1.5Zm4.326-3.539-3.424-1.977,9.073-15.715,3.424,1.977Zm10.857-18.8L43.054,17.5,39.63,15.521l0.886-1.534A1.977,1.977,0,0,1,43.94,15.964Z"/>
</svg>
