<svg xmlns="http://www.w3.org/2000/svg" width="40" height="52" viewBox="0 0 40 52">
  <defs>
    <style>
      .cls-1 {
        fill: #0f7bff;
        fill-rule: evenodd;
      }
    </style>
  </defs>
  <path id="icon_result" class="cls-1" d="M20,2.721A2.337,2.337,0,0,0,17.709,5.1a2.292,2.292,0,1,0,4.581,0A2.337,2.337,0,0,0,20,2.721Zm0,3.227A0.852,0.852,0,1,1,20.821,5.1,0.838,0.838,0,0,1,20,5.948ZM30.385,17a5.8,5.8,0,0,0-5.7-4.424A7.186,7.186,0,0,0,20,14.441a7.186,7.186,0,0,0-4.687-1.866A5.8,5.8,0,0,0,9.614,17c-0.333,1.4-.333,3.651,1.551,6.417,1.7,2.5,4.558,4.848,8.494,6.987a0.716,0.716,0,0,0,.682,0c3.935-2.138,6.792-4.489,8.493-6.987C30.718,20.649,30.717,18.4,30.385,17Zm-2.751,5.539A21.981,21.981,0,0,1,20,28.865a21.987,21.987,0,0,1-7.635-6.329,6.583,6.583,0,0,1-1.324-5.175A4.269,4.269,0,0,1,15.313,14.1a5.943,5.943,0,0,1,4.174,1.914,0.715,0.715,0,0,0,1.027,0A5.943,5.943,0,0,1,24.687,14.1a4.268,4.268,0,0,1,4.271,3.264A6.585,6.585,0,0,1,27.634,22.537ZM14.873,18.016a0.749,0.749,0,0,0-.735.762v0.962a0.735,0.735,0,1,0,1.469,0V18.778A0.749,0.749,0,0,0,14.873,18.016Zm10.254,0a0.749,0.749,0,0,0-.735.762v0.962a0.735,0.735,0,1,0,1.469,0V18.778A0.749,0.749,0,0,0,25.127,18.016ZM21.749,19.1a0.717,0.717,0,0,0-1.037.072,0.952,0.952,0,0,1-1.425,0,0.717,0.717,0,0,0-1.037-.072,0.782,0.782,0,0,0-.07,1.075,2.387,2.387,0,0,0,3.637,0A0.782,0.782,0,0,0,21.749,19.1Zm7.668,22.03H10.584a0.762,0.762,0,0,0,0,1.523H29.416A0.762,0.762,0,0,0,29.416,41.129Zm0-4.025H10.584a0.762,0.762,0,0,0,0,1.524H29.416A0.762,0.762,0,0,0,29.416,37.1Zm0-4.025H10.584a0.762,0.762,0,0,0,0,1.524H29.416A0.762,0.762,0,0,0,29.416,33.079Zm9.849-19.726A0.749,0.749,0,0,0,40,12.591V7.819a4.591,4.591,0,0,0-4.5-4.667H31.551a2.173,2.173,0,0,0-2.04-1.5H24.345a1.758,1.758,0,0,1-1.162-.441,4.78,4.78,0,0,0-6.365,0,1.757,1.757,0,0,1-1.162.441H10.489a2.173,2.173,0,0,0-2.04,1.5H4.5A4.591,4.591,0,0,0,0,7.819V47.333A4.591,4.591,0,0,0,4.5,52h31A4.591,4.591,0,0,0,40,47.333v-31.7a0.735,0.735,0,1,0-1.469,0v31.7A3.092,3.092,0,0,1,35.5,50.476H4.5a3.092,3.092,0,0,1-3.031-3.143V7.819A3.092,3.092,0,0,1,4.5,4.675H8.325V6.989H4.538a0.749,0.749,0,0,0-.735.762v29.01a0.735,0.735,0,1,0,1.469,0V8.513h3.14l0,0.012a2.267,2.267,0,0,0,1,1.3,2.1,2.1,0,0,0,1.076.3H29.511a2.123,2.123,0,0,0,1.321-.469,2.225,2.225,0,0,0,.751-1.13l0-.012h3.14V46.638H5.273v-6.83a0.735,0.735,0,1,0-1.469,0V47.4a0.749,0.749,0,0,0,.735.762H35.462A0.749,0.749,0,0,0,36.2,47.4V7.752a0.749,0.749,0,0,0-.735-0.762H31.674V4.675H35.5a3.092,3.092,0,0,1,3.031,3.143v4.772A0.749,0.749,0,0,0,39.265,13.352Zm-9.06-5.6a0.75,0.75,0,0,1-.694.848H10.489a0.756,0.756,0,0,1-.694-0.848V3.9a0.708,0.708,0,0,1,.694-0.719h5.167a3.2,3.2,0,0,0,2.115-.8,3.351,3.351,0,0,1,4.461,0,3.2,3.2,0,0,0,2.114.8h5.167a0.708,0.708,0,0,1,.694.72V7.752h0Z"/>
</svg>
