<svg xmlns="http://www.w3.org/2000/svg" width="39" height="36" viewBox="0 0 39 36">
  <defs>
    <style>
      .cls-1 {
        fill: #af00ff;
        fill-rule: evenodd;
      }
    </style>
  </defs>
  <path id="icon_cleandesign" class="cls-1" d="M34.6,18.2l-4.243-6.473a1.777,1.777,0,0,0-1.491-.8H10.146a1.776,1.776,0,0,0-1.49.8L4.4,18.193a1.744,1.744,0,0,0,.163,2.125L18.173,35.411A1.787,1.787,0,0,0,19.5,36h0a1.787,1.787,0,0,0,1.327-.588L34.437,20.317A1.743,1.743,0,0,0,34.6,18.2Zm-6.594-5.769-3.568,5.451-3.57-5.451h7.139ZM23.039,18.51h-7.08l3.54-5.4ZM18.13,12.426l-3.561,5.435L11.01,12.426h7.12ZM9.6,13.045l3.578,5.465H6.009ZM6.33,20.015H14l4.053,13ZM19.5,32.547L15.591,20.015h7.817Zm1.449,0.467,4.054-13h7.667Zm4.891-14.5,3.575-5.461,3.579,5.461H25.839Zm-23.529,0H0.762a0.752,0.752,0,1,0,0,1.5H2.31A0.752,0.752,0,1,0,2.31,18.51Zm35.928,0H36.69a0.752,0.752,0,1,0,0,1.5h1.549A0.752,0.752,0,1,0,38.238,18.51ZM33.3,5.645a0.769,0.769,0,0,0-1.077,0l-2.53,2.5a0.745,0.745,0,0,0,0,1.063,0.767,0.767,0,0,0,1.077,0l2.53-2.5A0.746,0.746,0,0,0,33.3,5.645ZM9.342,8.131l-2.53-2.5a0.767,0.767,0,0,0-1.077,0,0.746,0.746,0,0,0,0,1.064l2.53,2.5a0.768,0.768,0,0,0,1.077,0A0.746,0.746,0,0,0,9.342,8.131ZM19.519,0a0.757,0.757,0,0,0-.762.752v4.9a0.762,0.762,0,0,0,1.523,0v-4.9A0.757,0.757,0,0,0,19.519,0Zm0.538,7.67a0.769,0.769,0,0,0-1.077,0,0.746,0.746,0,0,0,0,1.064,0.768,0.768,0,0,0,1.077,0A0.746,0.746,0,0,0,20.057,7.669Z"/>
</svg>
