<svg xmlns="http://www.w3.org/2000/svg" width="47" height="47" viewBox="0 0 47 47">
  <defs>
    <style>
      .cls-1 {
        fill: #0f7bff;
        fill-rule: evenodd;
      }
    </style>
  </defs>
  <path id="icon_email" class="cls-1" d="M16.92,0.268a0.918,0.918,0,1,0-1.3,1.3A0.918,0.918,0,0,0,17.189.917,0.926,0.926,0,0,0,16.92.268ZM47,17.12a0.914,0.914,0,0,0-.378-0.7L42.043,13.11V2.753A2.757,2.757,0,0,0,39.289,0H19.874a0.918,0.918,0,0,0,0,1.836H39.289a0.919,0.919,0,0,1,.918.918V20.777L29,29.926l-2.811-2.034a4.581,4.581,0,0,0-5.381,0L18,29.926,6.793,20.777V2.753a0.919,0.919,0,0,1,.918-0.918h5a0.918,0.918,0,0,0,0-1.836h-5A2.757,2.757,0,0,0,4.957,2.753V13.11L0.38,16.422h0A0.915,0.915,0,0,0,0,17.166V42.409A4.6,4.6,0,0,0,4.59,47H42.41A4.6,4.6,0,0,0,47,42.409V17.166C47,17.149,47,17.134,47,17.12Zm-4.955-1.744,2.534,1.833-2.534,2.069v-3.9Zm-37.086,0v3.9L2.423,17.209ZM1.836,19.1L16.459,31.04,1.836,41.621V19.1ZM42.41,45.164H4.59a2.757,2.757,0,0,1-2.449-1.5L21.886,29.379a2.749,2.749,0,0,1,3.229,0L40.839,40.757H31.67a0.918,0.918,0,1,0,0,1.836H43.376l1.483,1.073A2.757,2.757,0,0,1,42.41,45.164Zm2.754-3.543L30.541,31.04,45.164,19.1V41.621ZM28.024,10.954a0.918,0.918,0,0,0-1.3,0l-4.5,4.5-1.947-1.947a0.918,0.918,0,1,0-1.3,1.3l2.6,2.6a0.918,0.918,0,0,0,1.3,0l5.154-5.154A0.918,0.918,0,0,0,28.024,10.954Zm-4.524-6a9.223,9.223,0,1,0,9.224,9.223A9.234,9.234,0,0,0,23.5,4.956Zm0,16.611a7.388,7.388,0,1,1,7.388-7.387A7.4,7.4,0,0,1,23.5,21.567Zm4.658,19.459a0.917,0.917,0,1,0,.269.649A0.925,0.925,0,0,0,28.158,41.026Z"/>
</svg>
