<svg xmlns="http://www.w3.org/2000/svg" width="31" height="31" viewBox="0 0 31 31">
  <defs>
    <style>
      .cls-1 {
        fill: #0f7bff;
        fill-rule: evenodd;
      }
    </style>
  </defs>
  <path id="icon_analysis" class="cls-1" d="M30.823,5.685l-5.51-5.509A0.6,0.6,0,0,0,24.885,0H6.9A1.819,1.819,0,0,0,5.086,1.815V2.969A8.011,8.011,0,0,0,0,10.419a0.606,0.606,0,0,0,.605.605H8A0.606,0.606,0,0,0,8.6,10.419V3.026A0.605,0.605,0,0,0,8,2.421,7.965,7.965,0,0,0,6.3,2.6V1.815A0.606,0.606,0,0,1,6.9,1.21H24.279V4.9A1.818,1.818,0,0,0,26.1,6.719h3.693V29.182a0.606,0.606,0,0,1-.605.605H6.9A0.606,0.606,0,0,1,6.3,29.182V24a0.606,0.606,0,0,0-1.211,0v5.186A1.818,1.818,0,0,0,6.9,31H29.184A1.818,1.818,0,0,0,31,29.182V6.113A0.605,0.605,0,0,0,30.823,5.685ZM7.392,3.658V9.813H1.238A6.8,6.8,0,0,1,7.392,3.658Zm18.7,1.85A0.606,0.606,0,0,1,25.49,4.9V2.066l3.443,3.443H26.1ZM6.119,21.368A0.6,0.6,0,1,0,6.3,21.8,0.61,0.61,0,0,0,6.119,21.368ZM10.166,4.589a0.606,0.606,0,0,0-.605.606v6.786H2.774a0.606,0.606,0,0,0-.606.606A8,8,0,1,0,10.166,4.589Zm0.605,1.238a6.757,6.757,0,0,1,3.744,1.554l-3.744,3.744v-5.3ZM10.166,19.374a6.8,6.8,0,0,1-6.76-6.181h6.76a0.6,0.6,0,0,0,.428-0.176h0l4.778-4.777A6.783,6.783,0,0,1,10.166,19.374Zm16.358-.266a1.816,1.816,0,0,0-1.673,2.524L21.363,25.12a1.812,1.812,0,0,0-1.569-.008L17.478,22.8a1.817,1.817,0,1,0-3.341.1l-2.222,2.221a1.817,1.817,0,1,0,.857.855l2.209-2.209a1.811,1.811,0,0,0,1.7-.049l2.251,2.251a1.817,1.817,0,1,0,3.279.017l3.456-3.455A1.816,1.816,0,1,0,26.524,19.108ZM11.135,27.362a0.605,0.605,0,1,1,.419-1.042l0.007,0.008,0.009,0.008A0.6,0.6,0,0,1,11.135,27.362Zm4.652-4.622a0.605,0.605,0,1,1,.605-0.605A0.606,0.606,0,0,1,15.786,22.74Zm4.784,4.619a0.605,0.605,0,1,1,.605-0.6A0.605,0.605,0,0,1,20.57,27.359Zm5.954-5.829a0.605,0.605,0,1,1,.605-0.606A0.606,0.606,0,0,1,26.524,21.529Zm-3.026-7.3H20.3a0.606,0.606,0,0,0,0,1.211h3.2A0.606,0.606,0,0,0,23.5,14.227Zm3.185,0.178a0.6,0.6,0,1,0,.177.428A0.609,0.609,0,0,0,26.682,14.405ZM27.7,8.415H20.3a0.606,0.606,0,0,0,0,1.211h7.4A0.606,0.606,0,0,0,27.7,8.415Zm0,2.906H20.3a0.606,0.606,0,0,0,0,1.211h7.4A0.606,0.606,0,0,0,27.7,11.321Z"/>
</svg>
